DataType=double
version=3
OpenSimVersion=4.5
endheader
time	ground_force_1_vx	ground_force_1_vy	ground_force_1_vz	ground_force_1_px	ground_force_1_py	ground_force_1_pz	ground_moment_1_mx	ground_moment_1_my	ground_moment_1_mz	ground_force_2_vx	ground_force_2_vy	ground_force_2_vz	ground_force_2_px	ground_force_2_py	ground_force_2_pz	ground_moment_2_mx	ground_moment_2_my	ground_moment_2_mz
1	-16.35087905	631.3358708	31.41930213	0.8076506260422924	0	0.254876446341871	-96.46449396	0.477930464	-17.89010262	0	0	0	0.8089	0	0.745900015	0	0	0
1.005	-14.15825977	636.1067549000001	30.98255645	0.8076506260422924	0	0.254876446341871	-97.54147904	0.853619904	-21.3924356	0	0	0	0.8089	0	0.745900015	0	0	0
1.01	-11.93606481	640.7377209	30.5801402	0.8076506260422924	0	0.254876446341871	-98.58230125	1.278571669	-24.96335388	0	0	0	0.8089	0	0.745900015	0	0	0
1.015	-9.737098667	645.335705	30.18411135	0.8076506260422924	0	0.254876446341871	-99.56997244999999	1.71516086	-28.48848829	0	0	0	0.8089	0	0.745900015	0	0	0
1.02	-7.56787854	649.820118	29.9052474	0.8076506260422924	0	0.254876446341871	-100.4947621	2.158825639	-32.01944234	0	0	0	0.8089	0	0.745900015	0	0	0
1.025	-5.332153238	653.926027	29.77952279	0.8076506260422924	0	0.254876446341871	-101.3502347	2.594283905	-35.64291989	0	0	0	0.8089	0	0.745900015	0	0	0
1.03	-2.957494834	657.5194873	29.70087403	0.8076506260422924	0	0.254876446341871	-102.1345326	3.025431084	-39.30364613	0	0	0	0.8089	0	0.745900015	0	0	0
1.035	-0.550218617	660.7349107	29.52783291	0.8076506260422924	0	0.254876446341871	-102.8457298	3.465544301	-42.90770695	0	0	0	0.8089	0	0.745900015	0	0	0
1.04	1.781296662	663.67074	29.2546825	0.8076506260422924	0	0.254876446341871	-103.4877118	3.905724841	-46.49791897	0	0	0	0.8089	0	0.745900015	0	0	0
1.045	4.18453878	666.182685	28.99084769	0.8076506260422924	0	0.254876446341871	-104.0617903	4.334994555	-50.13886563	0	0	0	0.8089	0	0.745900015	0	0	0
1.05	6.815056042	668.1460742	28.83928432	0.8076506260422924	0	0.254876446341871	-104.5653882	4.759706321	-53.83321794	0	0	0	0.8089	0	0.745900015	0	0	0
1.055	9.552865202	669.6892018	28.81222796	0.8076506260422924	0	0.254876446341871	-105.0052823	5.192410842	-57.54993188	0	0	0	0.8089	0	0.745900015	0	0	0
1.06	12.26457118	671.0152251	28.8076858	0.8076506260422924	0	0.254876446341871	-105.390301	5.65498508	-61.25766898	0	0	0	0.8089	0	0.745900015	0	0	0
1.065	15.08802821	672.0822061	28.77013953	0.8076506260422924	0	0.254876446341871	-105.7342967	6.159825399	-64.97034902	0	0	0	0.8089	0	0.745900015	0	0	0
1.07	18.18928893	672.8074317000001	28.78976065	0.8076506260422924	0	0.254876446341871	-106.0444053	6.704493994	-68.76571736	0	0	0	0.8089	0	0.745900015	0	0	0
1.075	21.49151254	673.3529453	28.9990668	0.8076506260422924	0	0.254876446341871	-106.320173	7.289912348	-72.64121106	0	0	0	0.8089	0	0.745900015	0	0	0
1.08	24.79579945	673.9691693	29.40016704	0.8076506260422924	0	0.254876446341871	-106.5720532	7.909965488	-76.52897425	0	0	0	0.8089	0	0.745900015	0	0	0
1.085	28.06440679	674.7029042	29.85751474	0.8076506260422924	0	0.254876446341871	-106.8214848	8.564404111	-80.42117134	0	0	0	0.8089	0	0.745900015	0	0	0
1.09	31.40964374	675.4869227	30.27205599	0.8076506260422924	0	0.254876446341871	-107.0898564	9.244575148999999	-84.42321895000001	0	0	0	0.8089	0	0.745900015	0	0	0
1.095	34.86678897	676.3729123000001	30.69491316	0.8076506260422924	0	0.254876446341871	-107.3882267	9.930616821999999	-88.59031999	0	0	0	0.8089	0	0.745900015	0	0	0
1.1	38.31004057	677.5257824	31.22111938	0.8076506260422924	0	0.254876446341871	-107.7188573	10.61270822	-92.81856157999999	0	0	0	0.8089	0	0.745900015	0	0	0
1.105	41.60708482	678.9702903	31.81113959	0.8076506260422924	0	0.254876446341871	-108.082265	11.29520365	-96.96743407	0	0	0	0.8089	0	0.745900015	0	0	0
1.11	44.76647202	680.5861976	32.31651906	0.8076506260422924	0	0.254876446341871	-108.4803234	11.98758879	-101.069689	0	0	0	0.8089	0	0.745900015	0	0	0
1.115	47.92789168	682.2862694	32.65170722	0.8076506260422924	0	0.254876446341871	-108.9067644	12.69731314	-105.2383255	0	0	0	0.8089	0	0.745900015	0	0	0
1.12	51.19376664	684.0154443	32.86354813	0.8076506260422924	0	0.254876446341871	-109.3400395	13.40888903	-109.4232284	0	0	0	0.8089	0	0.745900015	0	0	0
1.125	54.49384678	685.617417	33.04535639	0.8076506260422924	0	0.254876446341871	-109.7468902	14.11040405	-113.4375551	0	0	0	0.8089	0	0.745900015	0	0	0
1.13	57.70126049	686.9582948	33.25696683	0.8076506260422924	0	0.254876446341871	-110.1043579	14.81297831	-117.2822562	0	0	0	0.8089	0	0.745900015	0	0	0
1.135	60.93034991	688.0167272	33.47417025	0.8076506260422924	0	0.254876446341871	-110.4029856	15.52762619	-121.1078762	0	0	0	0.8089	0	0.745900015	0	0	0
1.14	64.42128375999999	688.7501981	33.63076187	0.8076506260422924	0	0.254876446341871	-110.6339217	16.27546964	-124.9723752	0	0	0	0.8089	0	0.745900015	0	0	0
1.145	68.1414161	689.0263399	33.74276028	0.8076506260422924	0	0.254876446341871	-110.7820517	17.07210117	-128.7752795	0	0	0	0.8089	0	0.745900015	0	0	0
1.15	71.86091675	688.7778577	33.93833672	0.8076506260422924	0	0.254876446341871	-110.8318191	17.9085805	-132.4177928	0	0	0	0.8089	0	0.745900015	0	0	0
1.155	75.59211510999999	688.021595	34.31636874	0.8076506260422924	0	0.254876446341871	-110.7775573	18.7878992	-135.8994222	0	0	0	0.8089	0	0.745900015	0	0	0
1.16	79.54781832	686.7340507	34.80614377	0.8076506260422924	0	0.254876446341871	-110.624358	19.71581303	-139.2774798	0	0	0	0.8089	0	0.745900015	0	0	0
1.165	83.70456003	684.8260992	35.23806158	0.8076506260422924	0	0.254876446341871	-110.3757824	20.68795568	-142.5898011	0	0	0	0.8089	0	0.745900015	0	0	0
1.17	87.82126461999999	682.3000383	35.56154981	0.8076506260422924	0	0.254876446341871	-110.0319559	21.69776637	-145.7825129	0	0	0	0.8089	0	0.745900015	0	0	0
1.175	91.85005888000001	679.2704355	35.87225222	0.8076506260422924	0	0.254876446341871	-109.591135	22.70754781	-148.7295203	0	0	0	0.8089	0	0.745900015	0	0	0
1.18	95.90423232000001	675.7419701	36.23283329	0.8076506260422924	0	0.254876446341871	-109.0571107	23.69677832	-151.4741968	0	0	0	0.8089	0	0.745900015	0	0	0
1.185	100.0155431	671.5541522	36.55416484	0.8076506260422924	0	0.254876446341871	-108.4462404	24.66855592	-154.1632438	0	0	0	0.8089	0	0.745900015	0	0	0
1.19	104.1470685	666.6903234	36.67187263	0.8076506260422924	0	0.254876446341871	-107.7653062	25.6018632	-156.7739692	0	0	0	0.8089	0	0.745900015	0	0	0
1.195	108.2770985	661.2822362000001	36.56922107	0.8076506260422924	0	0.254876446341871	-107.0097855	26.48307238	-159.1362661	-0.17649505	15.92854805	-1.661531163	0.8089	0	0.745900015	3.251136015	0.056014017	2.516897162
1.2	112.3611479	655.323275	36.33850031	0.8076506260422924	0	0.254876446341871	-106.1594278	27.29194512	-161.2101922	3.843331458	33.15581986	-0.239216521	0.8089	0	0.745900015	6.913820448	-0.94753272	4.807885033
1.205	116.4006026	648.5478193	36.01941334	0.8076506260422924	0	0.254876446341871	-105.1920198	28.01714533	-163.0427123	9.090889494000001	58.20724388	2.835277187	0.8089	0	0.745900015	12.1490477	-2.356951599	8.165908440999999
1.21	120.4601419	640.729654	35.46562647	0.8076506260422924	0	0.254876446341871	-104.0612462	28.66745345	-164.5555315	14.55559353	91.82018336	7.965922643	0.8089	0	0.745900015	19.02457745	-4.02082682	12.70621928
